<svg xmlns="http://www.w3.org/2000/svg" width="170.584" height="54.224" viewBox="0 0 170.584 54.224">
  <g id="Grupo_356" data-name="Grupo 356" transform="translate(0)">
    <g id="Grupo_355" data-name="Grupo 355">
      <g id="Grupo_354" data-name="Grupo 354">
        <path id="Trazado_177" data-name="Trazado 177" d="M112.994,325.767v54.224H221.44V325.767Zm53.77,53.319H113.9V326.67h52.865Zm53.772,0H167.668V326.67h52.868Z" transform="translate(-112.994 -325.767)"/>
        <g id="Grupo_349" data-name="Grupo 349" transform="translate(116.579 24.84)">
          <path id="Trazado_178" data-name="Trazado 178" d="M404.119,439.783a1.889,1.889,0,0,1-1.675.858,2.1,2.1,0,0,1-1.8-.816,3.5,3.5,0,0,1-.6-2.125,3.56,3.56,0,0,1,.668-2.376,2.19,2.19,0,0,1,1.753-.774,2.057,2.057,0,0,1,1.379.42,2.079,2.079,0,0,1,.658,1.147h.99a2.646,2.646,0,0,0-.86-1.7,3.008,3.008,0,0,0-2.178-.748,3.148,3.148,0,0,0-2.581,1.149,4.889,4.889,0,0,0,.287,5.93,3.107,3.107,0,0,0,2.163.79,3.047,3.047,0,0,0,2.371-.964,3.373,3.373,0,0,0,.867-1.978h-.99A3.3,3.3,0,0,1,404.119,439.783Zm4.093-4.6h.7l1.353-1.472h-1.126Zm6.71.6a1.361,1.361,0,0,0-.964.393,2.03,2.03,0,0,0-.523.666V435.9h-.872v5.448h.917v-3.133a1.557,1.557,0,0,1,.371-1.025,1.311,1.311,0,0,1,1.065-.444c.055,0,.1,0,.152.006a.91.91,0,0,1,.149.021v-.964c-.1-.011-.167-.018-.206-.021Zm-6-.039a2.3,2.3,0,0,0-1.854.812,3.26,3.26,0,0,0-.695,2.186,3.01,3.01,0,0,0,.658,2.041,2.22,2.22,0,0,0,1.771.76,2.305,2.305,0,0,0,1.975-.859,3.568,3.568,0,0,0,.634-2.175,2.739,2.739,0,0,0-.723-2.062A2.432,2.432,0,0,0,408.922,435.74Zm1.2,4.323a1.248,1.248,0,0,1-1.236.69,1.321,1.321,0,0,1-1.193-.58,2.612,2.612,0,0,1-.379-1.448,3,3,0,0,1,.379-1.544,1.29,1.29,0,0,1,1.2-.64,1.351,1.351,0,0,1,1.314.752,2.759,2.759,0,0,1,.243,1.238A3.5,3.5,0,0,1,410.123,440.062ZM388.3,436.6a2.4,2.4,0,0,0-.554-.535,1.919,1.919,0,0,0-1.045-.265,1.981,1.981,0,0,0-1.727.87,3.525,3.525,0,0,0-.606,2.062,3,3,0,0,0,.663,2.036,2.022,2.022,0,0,0,1.572.767,2.152,2.152,0,0,0,1-.225,2,2,0,0,0,.757-.729v.765h.818v-7.5H388.3Zm-.374,3.586a1.251,1.251,0,0,1-1.042.547,1.293,1.293,0,0,1-1.184-.589,2.713,2.713,0,0,1-.369-1.464,2.433,2.433,0,0,1,.426-1.554,1.372,1.372,0,0,1,1.115-.526,1.313,1.313,0,0,1,1.04.5,2.322,2.322,0,0,1,.421,1.525A2.6,2.6,0,0,1,387.922,440.185Zm7.17-2.476a2.448,2.448,0,0,0-.361-.957,2.094,2.094,0,0,0-.828-.7,2.458,2.458,0,0,0-1.115-.27,2.336,2.336,0,0,0-1.855.818,3.14,3.14,0,0,0-.708,2.128,2.892,2.892,0,0,0,.7,2.07,2.29,2.29,0,0,0,1.716.739,3.047,3.047,0,0,0,.741-.082,2.123,2.123,0,0,0,1.024-.549,2.289,2.289,0,0,0,.449-.6,1.889,1.889,0,0,0,.235-.668h-.9a1.64,1.64,0,0,1-.337.638,1.44,1.44,0,0,1-1.134.474,1.285,1.285,0,0,1-1.126-.5,2.379,2.379,0,0,1-.392-1.331h3.965A6.278,6.278,0,0,0,395.092,437.709Zm-3.863.473a1.708,1.708,0,0,1,.449-1.151,1.379,1.379,0,0,1,1.05-.452,1.315,1.315,0,0,1,1.243.656,2.289,2.289,0,0,1,.256.947Zm38.8-2.429a1.99,1.99,0,0,0-1.627.8v-2.711h-.893v7.5h.846v-.695a2.556,2.556,0,0,0,.543.569,1.81,1.81,0,0,0,1.052.3,2.032,2.032,0,0,0,1.74-.857,3.529,3.529,0,0,0,.629-2.147,2.98,2.98,0,0,0-.635-2.064A2.139,2.139,0,0,0,430.029,435.753Zm.977,4.369a1.225,1.225,0,0,1-1.113.59,1.343,1.343,0,0,1-1.353-.9,3.471,3.471,0,0,1-.19-1.248,2.072,2.072,0,0,1,.473-1.528,1.508,1.508,0,0,1,1.094-.462,1.217,1.217,0,0,1,1.089.564,2.568,2.568,0,0,1,.368,1.427A2.921,2.921,0,0,1,431.006,440.123Zm6.966.6a.291.291,0,0,1-.248-.086.413.413,0,0,1-.058-.23v-3.136a1.241,1.241,0,0,0-.592-1.14,2.948,2.948,0,0,0-1.559-.367,2.647,2.647,0,0,0-1.449.4,1.586,1.586,0,0,0-.656,1.408h.854a1.308,1.308,0,0,1,.216-.64,1.2,1.2,0,0,1,1.016-.389,1.749,1.749,0,0,1,.945.211.747.747,0,0,1,.332.682.845.845,0,0,1-.057.353.5.5,0,0,1-.423.265l-1.457.181a2.243,2.243,0,0,0-1.239.515,1.485,1.485,0,0,0-.473,1.173,1.539,1.539,0,0,0,.48,1.153,1.715,1.715,0,0,0,1.236.46,2.463,2.463,0,0,0,1.152-.271,2.316,2.316,0,0,0,.8-.639,1.246,1.246,0,0,0,.157.5.754.754,0,0,0,.687.336,2.344,2.344,0,0,0,.305-.015,2.772,2.772,0,0,0,.327-.076v-.675c-.058.011-.113.018-.165.024S438.013,440.726,437.971,440.726Zm-1.225-1.412a1.261,1.261,0,0,1-.758,1.213,2.1,2.1,0,0,1-.932.224,1.076,1.076,0,0,1-.687-.23.749.749,0,0,1-.29-.624.809.809,0,0,1,.426-.76,2.034,2.034,0,0,1,.744-.206l.552-.07a3.623,3.623,0,0,0,.517-.1,1.425,1.425,0,0,0,.428-.182Zm-12.775-3.575a2.307,2.307,0,0,0-1.854.812,3.26,3.26,0,0,0-.695,2.186,3.012,3.012,0,0,0,.658,2.041,2.225,2.225,0,0,0,1.771.76,2.3,2.3,0,0,0,1.975-.859,3.568,3.568,0,0,0,.635-2.175,2.748,2.748,0,0,0-.721-2.062A2.441,2.441,0,0,0,423.971,435.74Zm1.2,4.323a1.246,1.246,0,0,1-1.233.69,1.323,1.323,0,0,1-1.2-.58,2.615,2.615,0,0,1-.376-1.448,3,3,0,0,1,.376-1.544,1.29,1.29,0,0,1,1.2-.64,1.354,1.354,0,0,1,1.316.752,2.761,2.761,0,0,1,.241,1.238A3.5,3.5,0,0,1,425.173,440.062ZM419.55,436.6a2.384,2.384,0,0,0-.552-.535,1.917,1.917,0,0,0-1.044-.265,1.982,1.982,0,0,0-1.729.87,3.525,3.525,0,0,0-.606,2.062,2.983,2.983,0,0,0,.664,2.036,2.025,2.025,0,0,0,1.572.767,2.132,2.132,0,0,0,1-.225,1.936,1.936,0,0,0,.755-.729v.765h.82v-7.5h-.877Zm-.376,3.586a1.24,1.24,0,0,1-1.037.547,1.291,1.291,0,0,1-1.183-.589,2.687,2.687,0,0,1-.371-1.464,2.417,2.417,0,0,1,.428-1.554,1.367,1.367,0,0,1,1.118-.526,1.306,1.306,0,0,1,1.034.5,2.322,2.322,0,0,1,.418,1.525A2.566,2.566,0,0,1,419.174,440.185Z" transform="translate(-384.365 -412.155)"/>
          <path id="Trazado_179" data-name="Trazado 179" d="M410.285,415.7a3.56,3.56,0,0,0,.635-2.174,2.738,2.738,0,0,0-.723-2.063,2.42,2.42,0,0,0-1.763-.7,2.308,2.308,0,0,0-1.857.814,3.243,3.243,0,0,0-.695,2.185,3,3,0,0,0,.658,2.041,2.215,2.215,0,0,0,1.768.76A2.3,2.3,0,0,0,410.285,415.7Zm-3.082-.508a2.6,2.6,0,0,1-.376-1.447,3,3,0,0,1,.376-1.544,1.289,1.289,0,0,1,1.2-.641,1.351,1.351,0,0,1,1.314.752,2.735,2.735,0,0,1,.243,1.239,3.464,3.464,0,0,1-.335,1.531,1.245,1.245,0,0,1-1.232.689A1.318,1.318,0,0,1,407.2,415.194Zm-3.265,1.171h.933v-5.421h-.933Zm10.051-4.671a1.84,1.84,0,0,1,.533-.067.9.9,0,0,1,.886.507,1.9,1.9,0,0,1,.146.8v3.426h.93v-3.49a2.83,2.83,0,0,0-.225-1.266,1.579,1.579,0,0,0-1.565-.808,2.17,2.17,0,0,0-.958.21,2.41,2.41,0,0,0-.818.688v-.781h-.872v5.447h.917v-2.848a3.657,3.657,0,0,1,.07-.82,1.362,1.362,0,0,1,.3-.558A1.393,1.393,0,0,1,413.988,411.694Zm-22.559-2.8h-.964v6.039l-3.732-6.039h-1.188v7.471h.964v-6.041l3.785,6.041h1.136Zm6.1,6.854a.275.275,0,0,1-.243-.087.393.393,0,0,1-.058-.228v-3.138a1.243,1.243,0,0,0-.6-1.139,2.944,2.944,0,0,0-1.557-.368,2.666,2.666,0,0,0-1.455.394,1.593,1.593,0,0,0-.65,1.409h.854a1.23,1.23,0,0,1,.217-.64,1.2,1.2,0,0,1,1.01-.389,1.782,1.782,0,0,1,.951.213.745.745,0,0,1,.332.682.789.789,0,0,1-.063.351.5.5,0,0,1-.421.266l-1.46.181a2.252,2.252,0,0,0-1.236.512,1.487,1.487,0,0,0-.472,1.175,1.528,1.528,0,0,0,.48,1.152,1.713,1.713,0,0,0,1.236.459,2.446,2.446,0,0,0,1.152-.271,2.346,2.346,0,0,0,.8-.636,1.224,1.224,0,0,0,.157.5.747.747,0,0,0,.689.336,2.436,2.436,0,0,0,.3-.015,2.58,2.58,0,0,0,.329-.076v-.673c-.058.009-.113.014-.162.022S397.578,415.748,397.533,415.748Zm-1.22-1.412a1.259,1.259,0,0,1-.76,1.214,2.09,2.09,0,0,1-.935.223,1.083,1.083,0,0,1-.687-.228.759.759,0,0,1-.285-.626.81.81,0,0,1,.421-.761,2.128,2.128,0,0,1,.747-.2l.554-.069a3.4,3.4,0,0,0,.515-.1,1.587,1.587,0,0,0,.431-.179Zm5.945,1.686a2.384,2.384,0,0,0,.763-1.583h-.891a1.948,1.948,0,0,1-.46.949,1.345,1.345,0,0,1-1.988-.211,2.6,2.6,0,0,1-.345-1.376,3.409,3.409,0,0,1,.243-1.367,1.285,1.285,0,0,1,1.251-.853,1.172,1.172,0,0,1,.927.332,1.625,1.625,0,0,1,.371.833h.891a2.132,2.132,0,0,0-.7-1.537,2.359,2.359,0,0,0-1.494-.448,2.256,2.256,0,0,0-1.774.8,3.292,3.292,0,0,0-.7,2.23,2.981,2.981,0,0,0,.637,1.951,2.086,2.086,0,0,0,1.7.778A2.374,2.374,0,0,0,402.258,416.022Zm2.612-7.128h-.933v1.034h.933Zm17.534,7.574a2.779,2.779,0,0,0,.326-.076v-.673c-.057.009-.112.014-.162.022s-.1.007-.138.007a.277.277,0,0,1-.245-.087.39.39,0,0,1-.058-.228v-3.138a1.242,1.242,0,0,0-.6-1.139,2.934,2.934,0,0,0-1.556-.368,2.678,2.678,0,0,0-1.455.394,1.592,1.592,0,0,0-.65,1.409h.851a1.261,1.261,0,0,1,.22-.64,1.2,1.2,0,0,1,1.014-.389,1.766,1.766,0,0,1,.948.213.745.745,0,0,1,.331.682.874.874,0,0,1-.06.351.5.5,0,0,1-.423.266l-1.458.181a2.24,2.24,0,0,0-1.238.512,1.485,1.485,0,0,0-.473,1.175,1.546,1.546,0,0,0,.478,1.152,1.724,1.724,0,0,0,1.238.459,2.447,2.447,0,0,0,1.152-.271,2.319,2.319,0,0,0,.8-.636,1.231,1.231,0,0,0,.157.5.751.751,0,0,0,.69.336A2.518,2.518,0,0,0,422.4,416.468Zm-1.194-2.132a1.261,1.261,0,0,1-.763,1.214,2.087,2.087,0,0,1-.935.223,1.082,1.082,0,0,1-.687-.228.758.758,0,0,1-.285-.626.808.808,0,0,1,.423-.761,2.1,2.1,0,0,1,.744-.2l.553-.069a3.331,3.331,0,0,0,.515-.1,1.647,1.647,0,0,0,.433-.179Zm2.443-5.442v7.471h.919v-7.471Z" transform="translate(-385.038 -398.023)"/>
          <path id="Trazado_180" data-name="Trazado 180" d="M399.759,383.615h-.93v1.034h.93Zm0,2.05h-.93v5.421h.93Zm-5.8,2.573a3.861,3.861,0,0,1,.068-.821,1.328,1.328,0,0,1,.3-.554,1.373,1.373,0,0,1,.661-.448,1.827,1.827,0,0,1,.533-.067.891.891,0,0,1,.883.507,1.82,1.82,0,0,1,.149.8v3.427h.932V387.6a2.867,2.867,0,0,0-.225-1.266,1.588,1.588,0,0,0-1.567-.808,2.168,2.168,0,0,0-.958.21,2.445,2.445,0,0,0-.815.688v-.781h-.872v5.447h.917Zm39.557,2.23c-.128,0-.209-.029-.248-.088a.389.389,0,0,1-.058-.226v-3.14a1.245,1.245,0,0,0-.592-1.138,2.924,2.924,0,0,0-1.559-.369,2.64,2.64,0,0,0-1.449.4,1.581,1.581,0,0,0-.656,1.405h.852a1.335,1.335,0,0,1,.219-.638,1.2,1.2,0,0,1,1.014-.389,1.748,1.748,0,0,1,.948.214.746.746,0,0,1,.334.682.793.793,0,0,1-.062.351.5.5,0,0,1-.421.264l-1.457.183a2.257,2.257,0,0,0-1.241.512,1.5,1.5,0,0,0-.473,1.176,1.531,1.531,0,0,0,.483,1.152,1.714,1.714,0,0,0,1.236.458,2.466,2.466,0,0,0,1.152-.269,2.3,2.3,0,0,0,.8-.639,1.258,1.258,0,0,0,.159.5.753.753,0,0,0,.687.336,2.644,2.644,0,0,0,.306-.015,2.349,2.349,0,0,0,.324-.077v-.674c-.058.011-.11.017-.162.022A1.321,1.321,0,0,1,433.515,390.469Zm-1.222-1.41a1.261,1.261,0,0,1-.763,1.213,2.054,2.054,0,0,1-.93.223,1.067,1.067,0,0,1-.687-.229.753.753,0,0,1-.29-.624.814.814,0,0,1,.423-.762,2.128,2.128,0,0,1,.747-.206l.551-.069a3.267,3.267,0,0,0,.517-.1,1.547,1.547,0,0,0,.431-.18Zm-10.544-3.393h-.933v5.421h.933Zm-3.223,4.634a1.806,1.806,0,0,1-.909.221,1.484,1.484,0,0,1-1.228-.442,1.3,1.3,0,0,1-.232-.7h-.878a2.07,2.07,0,0,0,.546,1.367,2.3,2.3,0,0,0,1.742.552,2.389,2.389,0,0,0,1.7-.529,1.681,1.681,0,0,0,.562-1.257,1.224,1.224,0,0,0-.536-1.1,4.82,4.82,0,0,0-1.35-.464l-.613-.149a2.059,2.059,0,0,1-.611-.222.638.638,0,0,1-.358-.568.618.618,0,0,1,.272-.522,1.363,1.363,0,0,1,.8-.2,1.457,1.457,0,0,1,1.12.362,1.075,1.075,0,0,1,.224.563h.865a1.571,1.571,0,0,0-.337-.988,2.119,2.119,0,0,0-1.8-.723,2.274,2.274,0,0,0-1.52.478,1.555,1.555,0,0,0-.564,1.252,1.149,1.149,0,0,0,.6,1.028,3.74,3.74,0,0,0,1.042.385l.739.184a3.791,3.791,0,0,1,.8.259.585.585,0,0,1,.316.533A.731.731,0,0,1,418.526,390.3Zm-29.865.983a2.615,2.615,0,0,0,2.575-1.352,4.809,4.809,0,0,0,.373-2.121v-4.2h-1.021v4.616a2.8,2.8,0,0,1-.25,1.287,1.808,1.808,0,0,1-1.76.879,1.616,1.616,0,0,1-1.536-.814,2.7,2.7,0,0,1-.305-1.353v-4.616h-1.022v4.2a4.85,4.85,0,0,0,.371,2.121A2.61,2.61,0,0,0,388.661,391.283Zm49.6-7.694v2.753a2.489,2.489,0,0,0-.554-.534,1.914,1.914,0,0,0-1.042-.266,1.982,1.982,0,0,0-1.732.872,3.531,3.531,0,0,0-.606,2.061,2.988,2.988,0,0,0,.666,2.036,2.013,2.013,0,0,0,1.569.764,2.173,2.173,0,0,0,1-.222,2,2,0,0,0,.755-.729v.763h.82v-7.5Zm-.376,6.342a1.252,1.252,0,0,1-1.042.543,1.293,1.293,0,0,1-1.183-.589,2.722,2.722,0,0,1-.369-1.46,2.441,2.441,0,0,1,.426-1.554,1.373,1.373,0,0,1,1.118-.529,1.306,1.306,0,0,1,1.037.5,2.32,2.32,0,0,1,.42,1.524A2.6,2.6,0,0,1,437.885,389.931Zm-24.8-1.975a1.563,1.563,0,0,1,.371-1.025,1.313,1.313,0,0,1,1.068-.445c.052,0,.1,0,.149,0s.094.012.149.022v-.963c-.1-.012-.168-.017-.207-.022l-.089-.005a1.372,1.372,0,0,0-.964.393,2.086,2.086,0,0,0-.522.667v-.943h-.873v5.447h.917Zm8.664-4.341h-.933v1.034h.933Zm-13.3,7.66a3.033,3.033,0,0,0,.742-.081,2.113,2.113,0,0,0,1.027-.547,2.354,2.354,0,0,0,.449-.6,1.9,1.9,0,0,0,.235-.667h-.9a1.6,1.6,0,0,1-.34.637,1.44,1.44,0,0,1-1.136.474,1.3,1.3,0,0,1-1.123-.5,2.342,2.342,0,0,1-.389-1.334h3.962a6.2,6.2,0,0,0-.081-1.2,2.4,2.4,0,0,0-.363-.958,2.052,2.052,0,0,0-.825-.7,2.446,2.446,0,0,0-1.115-.273,2.327,2.327,0,0,0-1.852.819,3.14,3.14,0,0,0-.708,2.126,2.875,2.875,0,0,0,.7,2.07A2.273,2.273,0,0,0,408.454,391.275Zm-.966-4.5a1.382,1.382,0,0,1,1.047-.452,1.317,1.317,0,0,1,1.248.658,2.317,2.317,0,0,1,.256.943h-3A1.706,1.706,0,0,1,407.488,386.774Zm-3.973,4.312,2.05-5.447h-1l-1.517,4.435-1.452-4.435h-1.066l2.011,5.447Zm23.162-4.744a2.543,2.543,0,0,0-.551-.534,1.926,1.926,0,0,0-1.047-.266,1.976,1.976,0,0,0-1.727.872,3.528,3.528,0,0,0-.606,2.061,3,3,0,0,0,.663,2.036,2.02,2.02,0,0,0,1.572.764,2.128,2.128,0,0,0,.995-.222,1.978,1.978,0,0,0,.76-.729v.763h.82v-7.5h-.88Zm-.376,3.589a1.247,1.247,0,0,1-1.04.543,1.289,1.289,0,0,1-1.183-.589,2.677,2.677,0,0,1-.369-1.46,2.423,2.423,0,0,1,.426-1.554,1.37,1.37,0,0,1,1.118-.529,1.3,1.3,0,0,1,1.034.5,2.32,2.32,0,0,1,.423,1.524A2.592,2.592,0,0,1,426.3,389.931Z" transform="translate(-385.135 -383.589)"/>
        </g>
        <g id="Grupo_350" data-name="Grupo 350" transform="translate(66.353 21.638)">
          <path id="Trazado_181" data-name="Trazado 181" d="M299.606,383.066l-6.649-6.9h-.191v10.658h1.749v-6.562l6.664,6.9h.191V376.5h-1.764Z" transform="translate(-281.891 -376.155)"/>
          <path id="Trazado_182" data-name="Trazado 182" d="M274.272,382.926c0,2.028-.859,3.063-2.477,3.063-1.647,0-2.508-1.02-2.508-3.018v-6.02H267.45v6.035c0,3.018,1.6,4.622,4.3,4.622,2.463,0,4.141-1.632,4.141-4.65V376.95h-1.62Z" transform="translate(-267.45 -376.6)"/>
          <path id="Trazado_183" data-name="Trazado 183" d="M318.968,381.633a3.525,3.525,0,0,1,3.5-3.821,3.641,3.641,0,0,1,2.726,1.312l.189-2.011a5.174,5.174,0,0,0-3.033-.976,5.245,5.245,0,0,0-5.247,5.511,5.484,5.484,0,0,0,2,4.374,5.087,5.087,0,0,0,3.208,1.122,5.31,5.31,0,0,0,3.105-1.005l.1-2.289a4.322,4.322,0,0,1-3.148,1.529A3.457,3.457,0,0,1,318.968,381.633Z" transform="translate(-295.772 -376.136)"/>
        </g>
        <g id="Grupo_353" data-name="Grupo 353" transform="translate(13.412 8.079)">
          <path id="Trazado_184" data-name="Trazado 184" d="M157.779,356.055h.322V355.5h.276v-.275H158.1v-.277h-.322v.277H157.5v.275h.277Zm-.965,1.414h.321v-1.325h-.321Zm2.668-.693a.372.372,0,0,0-.174-.086l-.223-.052a.252.252,0,0,1-.1-.04l-.015-.009a.079.079,0,0,1-.048-.076.105.105,0,0,1,.049-.093.271.271,0,0,1,.152-.037.424.424,0,0,1,.271.118l.025.026.147-.25-.021-.016a.7.7,0,0,0-.406-.154.561.561,0,0,0-.386.12.393.393,0,0,0-.134.3.337.337,0,0,0,.14.3.6.6,0,0,0,.246.1l.138.031a.264.264,0,0,1,.1.043l.021.013a.078.078,0,0,1,.041.072.118.118,0,0,1-.094.12.463.463,0,0,1-.145.021.477.477,0,0,1-.293-.124l-.024-.031-.145.251.018.014a.733.733,0,0,0,.452.161.592.592,0,0,0,.4-.122.389.389,0,0,0,.143-.309.336.336,0,0,0-.123-.281Zm-1.327-.147h-.434v-.485H157.4v1.325h.319V356.9h.434v.567h.323v-1.325h-.323Zm-2.377,5.967H155c-.107-.108-.55-.55-.55-.55l-.55.55h-.778v.777l-.551.55.551.55v.778h.778l.55.55.55-.55h.778v-.778l.55-.55-.55-.55Zm-.553,1.648v.452h-.455l-.32.321c-.119-.12-.321-.321-.321-.321h-.453v-.452s-.2-.2-.321-.321c.119-.119.321-.323.321-.323v-.452h.453l.321-.32.32.32h.455v.452l.32.323C155.426,364.039,155.225,364.243,155.225,364.243Zm.956,11.968c.011.01.022.021.033.029a4.092,4.092,0,0,0,.506.343,2.012,2.012,0,0,0,1.07-1.775h-.546A1.455,1.455,0,0,1,156.181,376.211Zm.786-1.93h-.545a1.455,1.455,0,0,1-.854,1.328,4.593,4.593,0,0,0,.4.412A2.009,2.009,0,0,0,156.967,374.281Zm13.093-9.231h-1.754a2.183,2.183,0,0,0-1.03-.947,1.336,1.336,0,0,0,1.046-1.254c0-.026,0-.051,0-.079a1.39,1.39,0,0,0-1.461-1.37,1.886,1.886,0,0,1-.143-.677c0-.04,0-.082,0-.124a6.471,6.471,0,0,1,.32-1.6,9.46,9.46,0,0,0,.453-2.556c0-.111,0-.226-.01-.339a4.121,4.121,0,0,0-1.327-2.911,4.246,4.246,0,0,0-3.112-.955,3,3,0,0,0-.623.106,1.344,1.344,0,0,0,.422-.452l2.131-3.623-.337-.713-.791.038s-.135.226-.193.325l-.337-.2-.675.378.041.754.3.191-.167.278a6.655,6.655,0,0,0-1.213-.686c.061-.219.123-.453.187-.695l.394.108.618-.537-.258-.777-.394-.106c.034-.128.107-.4.107-.4l-.534-.615-.776.257-.108.393-.394-.107-.624.533.265.778.393.107c-.063.225-.113.41-.173.628a11.214,11.214,0,0,0-1.551-.236v-.807h.474l.521-.781-.521-.782h-.474v-.466l-.782-.561-.781.561v.466h-.473l-.521.782.521.781h.473v.807a11.291,11.291,0,0,0-1.553.236c-.058-.218-.11-.4-.171-.628l.394-.107.265-.778-.626-.533s-.267.072-.392.107c-.036-.125-.11-.393-.11-.393l-.775-.257-.537.615s.075.269.109.4l-.4.106-.257.777.619.537.393-.108c.065.241.127.476.188.695a6.73,6.73,0,0,0-1.213.686c-.074-.125-.1-.162-.165-.278l.3-.191.04-.754-.675-.378s-.238.141-.336.2l-.2-.325-.79-.038-.337.713,2.128,3.614a1.3,1.3,0,0,0,.423.461,3,3,0,0,0-.622-.106,4.246,4.246,0,0,0-3.112.955,4.11,4.11,0,0,0-1.326,2.911c-.008.113-.012.229-.012.339a9.409,9.409,0,0,0,.454,2.556,6.545,6.545,0,0,1,.319,1.6c0,.042,0,.084,0,.124a1.86,1.86,0,0,1-.143.677,1.391,1.391,0,0,0-1.461,1.37c0,.029,0,.053,0,.079a1.337,1.337,0,0,0,1.048,1.254,2.182,2.182,0,0,0-1.03.947h-1.755l-1.649,1.65,1.463,1.462a6.148,6.148,0,0,1-.583,2.475,5.144,5.144,0,0,0-.414,2.065,5.086,5.086,0,0,0,2,3.966,4.69,4.69,0,0,0,2.227.964,5.64,5.64,0,0,1,1.441.456,4.663,4.663,0,0,1,1.871,1.513l.06.08a7.07,7.07,0,0,0,11.355,0l.061-.08a4.664,4.664,0,0,1,1.871-1.513,5.653,5.653,0,0,1,1.442-.456,4.689,4.689,0,0,0,2.226-.964,5.044,5.044,0,0,0,1.589-6.031,6.184,6.184,0,0,1-.581-2.475l1.463-1.462Zm-2.235.276c.022.042.045.083.064.128a1.513,1.513,0,0,1,.064.149,3.412,3.412,0,0,1,.194,1.2,9.441,9.441,0,0,1-.407,2.422,29.05,29.05,0,0,1-1.519,4.017l-.391-.935-1.059.275c.41-.643,1.1-1.74,1.855-2.959a5.866,5.866,0,0,0,.845-2.867,2.63,2.63,0,0,0-.189-1.035,1.42,1.42,0,0,0-.1-.207v0h0a1.229,1.229,0,0,0-1.069-.607A1.1,1.1,0,0,0,165,365.966h.555a.443.443,0,0,1,0-.052.542.542,0,0,1,.549-.456.643.643,0,0,1,.531.254.733.733,0,0,1,.076.11c.015.029.028.059.042.09a.892.892,0,0,1,.072.341.978.978,0,0,1-1.071,1.013,1.259,1.259,0,0,1-1.287-1.318,1.568,1.568,0,0,1,1.6-1.525A1.835,1.835,0,0,1,167.825,365.326Zm-15.751.734a18.968,18.968,0,0,1,1.3-6.988v2.778s.852-.85,1.074-1.073l1.075,1.08V359.4l5.21,3.438h-4.208l1.071,1.075-1.071,1.075h7.288c.02.352.032.709.034,1.068Zm11.773.554a17.873,17.873,0,0,1-1.77,7.849c-1.115,2.129-2.578,3.3-4.116,3.3s-3-1.172-4.114-3.3a17.867,17.867,0,0,1-1.771-7.849Zm-13.315-6.923a9.4,9.4,0,0,1-.3-2.229c0-.171,0-.348.018-.537a2.629,2.629,0,0,1,1.474-2.352,2.5,2.5,0,0,1,.483-.168,1.483,1.483,0,0,0-.309.8c0,.042,0,.084,0,.124a1.546,1.546,0,0,0,1.543,1.572,2.02,2.02,0,0,0,.464-.021c-.187.287-.369.6-.542.923a17.72,17.72,0,0,0-1.785,6.9,2.12,2.12,0,0,0-1.615-.833,2.684,2.684,0,0,0,.821-2.067c.008-.11.011-.218.011-.324A7.961,7.961,0,0,0,150.532,359.691Zm9.97-4.564c0,.01,0,.023,0,.036a4.581,4.581,0,0,0-1.175-.692,2.537,2.537,0,0,1,.249-1.246,9.193,9.193,0,0,0,1.949-.439,2.518,2.518,0,0,0-.363.342A2.767,2.767,0,0,0,160.5,355.127Zm-2.541-2.352c-2.587,0-4.271-.735-4.393-1.16h0a.172.172,0,0,1-.009-.047c0-.638,1.757-1.6,4.4-1.6s4.4.964,4.4,1.6C162.364,351.98,160.649,352.775,157.961,352.775Zm.987.514a3.19,3.19,0,0,0-.173,1.006,3.6,3.6,0,0,0-1.625,0,3.252,3.252,0,0,0-.173-1.006c.327.025.657.038.984.038S158.62,353.314,158.948,353.289Zm-2.6-.064a2.553,2.553,0,0,1,.25,1.246,4.558,4.558,0,0,0-1.177.692.246.246,0,0,0,0-.038,2.768,2.768,0,0,0-.664-2,2.543,2.543,0,0,0-.363-.342A9.228,9.228,0,0,0,156.345,353.225Zm1.616,1.531c1.539,0,3,1.173,4.116,3.3a15.141,15.141,0,0,1,1.36,3.972l-8.5-5.618A4.036,4.036,0,0,1,157.961,354.756Zm5.615,8.028c.073.453.134.917.178,1.388l-9.737-6.425a9.208,9.208,0,0,1,.575-.9Zm-5.716.613h3.715l1.58,1.042H157.86l.519-.521S158.016,363.552,157.86,363.4Zm-2.889-4.358v1.477l-.519-.524-.523.521V358.35Zm7.6-1.237q-.258-.491-.541-.923a2.022,2.022,0,0,0,.464.021,1.546,1.546,0,0,0,1.542-1.572c0-.04,0-.082,0-.124a1.473,1.473,0,0,0-.309-.8,2.5,2.5,0,0,1,.483.168,2.628,2.628,0,0,1,1.474,2.352c.013.188.018.366.018.537a9.5,9.5,0,0,1-.3,2.229,7.793,7.793,0,0,0-.258,1.789c0,.106.005.214.011.324a2.684,2.684,0,0,0,.822,2.067,2.12,2.12,0,0,0-1.616.833A17.691,17.691,0,0,0,162.567,357.8Zm.506-5.008a3.7,3.7,0,0,1,2.711.819,3.576,3.576,0,0,1,1.139,2.53,8.151,8.151,0,0,1-.423,2.711,6.086,6.086,0,0,0-.335,1.908c.053.816.305,1.077.38,1.138l.085.065.108-.006a.863.863,0,0,1,1.031.851.836.836,0,0,1-.867.8c-.891.059-1.145-.97-1.2-1.843a6.514,6.514,0,0,1,.235-1.955,9.389,9.389,0,0,0,.3-2.923,3.227,3.227,0,0,0-1.789-2.817,2.4,2.4,0,0,0-2.331.03l0,0a1.106,1.106,0,0,0-.514.9.509.509,0,0,0,0,.06l.552-.035a.551.551,0,0,1,.529-.558.669.669,0,0,1,.5.161.918.918,0,0,1,.288.6,1,1,0,0,1-1.024,1.109,1.3,1.3,0,0,1-.96-.3,1.353,1.353,0,0,1-.436-.957,2.209,2.209,0,0,1,.527-1.6A2.11,2.11,0,0,1,163.073,352.793Zm-9.874-1.8c-.547-.928-1.519-2.577-1.616-2.744.023-.051.027-.061.054-.113l.125,0,.327.547.535-.323.094.052c0,.063,0,.073-.008.129l-.51.326.768,1.279.247-.206a6.1,6.1,0,0,1,1.542-.88l.235-.089-.458-1.712-.645.177-.115-.1c.023-.068.027-.083.047-.143l.644-.176s-.137-.493-.177-.643c.043-.049.052-.061.1-.116l.145.05c.04.149.177.64.177.64l.642-.175c.049.043.063.052.117.1-.025.068-.029.084-.048.145-.152.04-.645.176-.645.176l.463,1.687.268-.075a10.394,10.394,0,0,1,1.964-.3l.264-.013v-1.887H157l-.151-.226c.065-.1.1-.143.151-.227h.733v-.736c.079-.059.128-.094.226-.164.1.07.148.106.228.164v.736h.732c.056.084.088.131.152.227-.064.1-.1.144-.152.226h-.732V348.5l.263.013a10.4,10.4,0,0,1,1.965.3l.267.075.462-1.687-.644-.176c-.02-.061-.024-.077-.049-.145.056-.047.068-.056.117-.1l.644.175s.134-.491.176-.64l.145-.05c.047.055.056.068.1.116-.04.15-.176.643-.176.643l.643.176c.019.06.026.076.047.143-.054.047-.067.058-.113.1l-.645-.177-.462,1.712.236.089a6.113,6.113,0,0,1,1.543.88l.247.206.166-.275.6-1s-.392-.252-.51-.326c0-.056,0-.067-.006-.129l.093-.052.536.323.326-.547.125,0c.026.052.031.063.056.113-.1.167-1.071,1.815-1.617,2.745-.6-.9-2.537-1.575-4.764-1.575S153.8,350.091,153.2,350.988Zm-5.043,11.82a.862.862,0,0,1,1.031-.851l.106.006.085-.065c.075-.06.327-.321.381-1.138a6.077,6.077,0,0,0-.336-1.908,8.162,8.162,0,0,1-.423-2.711,3.578,3.578,0,0,1,1.139-2.53,3.7,3.7,0,0,1,2.711-.819,2.112,2.112,0,0,1,1.492.7,2.216,2.216,0,0,1,.527,1.6,1.356,1.356,0,0,1-.438.957,1.3,1.3,0,0,1-.961.3,1,1,0,0,1-1.022-1.109.912.912,0,0,1,.289-.6.665.665,0,0,1,.5-.161.555.555,0,0,1,.531.558l.551.035c0-.018,0-.038,0-.06a1.108,1.108,0,0,0-.512-.9l0,0a2.4,2.4,0,0,0-2.33-.03,3.219,3.219,0,0,0-1.789,2.817,9.409,9.409,0,0,0,.295,2.923,6.528,6.528,0,0,1,.235,1.955c-.058.873-.312,1.9-1.2,1.843A.833.833,0,0,1,148.156,362.808Zm-.185,2.794c.019-.051.04-.1.063-.149a1.155,1.155,0,0,1,.065-.128,1.833,1.833,0,0,1,1.754-.9,1.569,1.569,0,0,1,1.6,1.525,1.26,1.26,0,0,1-1.289,1.318.978.978,0,0,1-1.071-1.013.942.942,0,0,1,.072-.341c.015-.031.028-.061.043-.09a.967.967,0,0,1,.074-.11.652.652,0,0,1,.535-.254.542.542,0,0,1,.548.456c0,.018,0,.035,0,.052h.553a1.1,1.1,0,0,0-1.106-1.063,1.228,1.228,0,0,0-1.069.607h0v0a1.571,1.571,0,0,0-.1.207,2.63,2.63,0,0,0-.189,1.035,5.866,5.866,0,0,0,.845,2.867c.75,1.219,1.445,2.316,1.855,2.959l-1.059-.275s-.242.581-.389.935a28.9,28.9,0,0,1-1.522-4.017,9.441,9.441,0,0,1-.407-2.422A3.393,3.393,0,0,1,147.971,365.6Zm-.324,5.693a6.072,6.072,0,0,0,.269-.769l.011-.049c.01-.037.018-.074.027-.11a30.857,30.857,0,0,0,1.52,3.676l.27.541s.55-1.316.677-1.621c.332.088,1.962.512,1.962.512l-.384-.6c-.009-.017-1.053-1.634-2.229-3.546a5.439,5.439,0,0,1-.7-1.889,1.672,1.672,0,0,0,1.094.378,1.812,1.812,0,0,0,1.375-.6,18.059,18.059,0,0,0,1.817,7.5c1.214,2.323,2.851,3.6,4.6,3.6s3.391-1.277,4.606-3.6a18.039,18.039,0,0,0,1.818-7.5,1.81,1.81,0,0,0,1.375.6,1.672,1.672,0,0,0,1.094-.378,5.4,5.4,0,0,1-.7,1.889c-1.177,1.912-2.219,3.529-2.229,3.546l-.386.6,1.965-.512c.125.3.675,1.621.675,1.621l.271-.541a31.094,31.094,0,0,0,1.519-3.676c.009.035.018.073.027.11l.012.049a5.939,5.939,0,0,0,.268.769,3.724,3.724,0,0,1,.358,1.406,2.479,2.479,0,0,1-2.259,2.425,7.278,7.278,0,0,0-3.29,1.449,7.156,7.156,0,0,0-1.5,1.51c-.1.134-.2.253-.284.349a4.452,4.452,0,0,1-6.677,0c-.086-.1-.177-.214-.283-.349a7.117,7.117,0,0,0-1.5-1.51,7.284,7.284,0,0,0-3.292-1.449,2.476,2.476,0,0,1-2.258-2.425A3.7,3.7,0,0,1,147.647,371.3ZM145,366.7l.706-.7v1.236c0,.059,0,.115,0,.171Zm25.335,4.182a4.5,4.5,0,0,1-1.438,5.354,4.164,4.164,0,0,1-2,.854,6.082,6.082,0,0,0-1.575.5,5.191,5.191,0,0,0-2.062,1.669l-.06.077a6.514,6.514,0,0,1-10.48,0l-.058-.077a5.2,5.2,0,0,0-2.063-1.669,6.061,6.061,0,0,0-1.575-.5,4.161,4.161,0,0,1-2-.854,4.5,4.5,0,0,1-1.438-5.354,7.755,7.755,0,0,0,.664-3.65V365.6h1.131a4.093,4.093,0,0,0-.163,1.2,9.788,9.788,0,0,0,.394,2.46c-.069.435-.153.776-.229,1.083l-.011.049a5.255,5.255,0,0,1-.246.693,4.239,4.239,0,0,0-.4,1.614,3.048,3.048,0,0,0,2.706,2.97,6.71,6.71,0,0,1,3.068,1.35,6.52,6.52,0,0,1,1.393,1.4c.108.138.209.268.31.381a5.006,5.006,0,0,0,7.5,0c.1-.114.2-.243.309-.381a6.541,6.541,0,0,1,1.393-1.4,6.71,6.71,0,0,1,3.068-1.35,3.049,3.049,0,0,0,2.707-2.97,4.223,4.223,0,0,0-.4-1.614,5.232,5.232,0,0,1-.244-.693l-.013-.049c-.075-.307-.16-.647-.228-1.083a9.787,9.787,0,0,0,.394-2.46,4.123,4.123,0,0,0-.162-1.2h1.131v1.629A7.778,7.778,0,0,0,170.332,370.882Zm-.108-3.479c0-.056,0-.112,0-.171V366l.706.7Zm-15.877,4.808h0v.055a1.081,1.081,0,0,0,1.082,1.08h.182v.423a1.46,1.46,0,0,1-.569,1.147c.106.154.211.3.32.44a2,2,0,0,0,.794-1.6v-.952h-.727a.537.537,0,0,1-.538-.538l0-.061a.537.537,0,0,0-.384-.515h0a.539.539,0,0,1-.356-.507.417.417,0,0,1,.012-.115.5.5,0,0,0,.024-.161.538.538,0,0,0-.278-.471h0a1.459,1.459,0,0,1-.735-1.269,1.508,1.508,0,0,1,.029-.3l1.737.494,1.777,2.109.921-.815,0-1.216h-.567a1.017,1.017,0,0,1,.888-.551.991.991,0,0,1,.978.816l.422,1.576,1.618-1.92,1.736-.494a1.393,1.393,0,0,1,.033.3A1.46,1.46,0,0,1,162,370.44h0a.538.538,0,0,0-.278.471.526.526,0,0,0,.023.161.477.477,0,0,1,.013.115.54.54,0,0,1-.355.507h0a.538.538,0,0,0-.383.515l0,.061a.538.538,0,0,1-.539.538h-1.334a2.543,2.543,0,0,1-.675,1.71,1.082,1.082,0,0,0-.139,1.2,1.979,1.979,0,0,0,.861.866,4.447,4.447,0,0,0,.536-.371,1.477,1.477,0,0,1-.912-.746.514.514,0,0,1,.1-.627,2.961,2.961,0,0,0,.558-.883,3.618,3.618,0,0,0,.18-.615h.827a1.08,1.08,0,0,0,1.08-1.08v-.055h0a1.082,1.082,0,0,0,.738-1.025,1.119,1.119,0,0,0-.033-.27,2.01,2.01,0,0,0,.774-2.7l-2.385.661-1.071,1.272s-.084-.274-.154-.579a1.508,1.508,0,0,0-.61-.922l.566-1.234-.924.183-.511-.695-.526.7-.908-.184.565,1.234a1.47,1.47,0,0,0-.643,1.236c0,.044.005.113.005.113h.633l.006.4-.314.284-1.523-1.807-2.382-.661a1.977,1.977,0,0,0-.244.955,2,2,0,0,0,1.019,1.746,1.058,1.058,0,0,0-.034.27A1.08,1.08,0,0,0,154.346,372.211Zm3.356-4,.253-.354.253.354.252-.051-.119.261a1.487,1.487,0,0,0-.77,0l-.119-.261Z" transform="translate(-144.214 -344.572)"/>
          <g id="Grupo_352" data-name="Grupo 352" transform="translate(1.305 12.661)">
            <g id="Grupo_351" data-name="Grupo 351" transform="translate(0 12.716)">
              <path id="Trazado_185" data-name="Trazado 185" d="M148.2,406.463l-.6-.179.614-.167.021-.267-.978.319,0,.218.954.332Zm1.095,2.318-.018.021-.576.73.19.149.595-.748Zm.821.808.107-.183-.676-.4-.012.022-.095.159s.2.115.232.138c-.025.045-.377.64-.377.64l.208.122s.351-.6.378-.64Zm-1.284-.619,0-.009a.249.249,0,0,0-.038-.139l-.079-.14-.029-.069V408.6a.05.05,0,0,1,.014-.054.063.063,0,0,1,.065-.017.152.152,0,0,1,.088.058.407.407,0,0,1,.069.2l.2-.044a.673.673,0,0,0-.1-.289.359.359,0,0,0-.251-.145.288.288,0,0,0-.229.077.248.248,0,0,0-.09.223.408.408,0,0,0,.067.177l.05.086a.151.151,0,0,1,.024.072l.005.018a.049.049,0,0,1-.016.048.078.078,0,0,1-.1.009.309.309,0,0,1-.079-.067.685.685,0,0,1-.086-.239l-.209.047a.892.892,0,0,0,.148.338.429.429,0,0,0,.256.15.286.286,0,0,0,.238-.076A.251.251,0,0,0,148.829,408.97Zm-.605-.606a.172.172,0,0,0,.021-.079.175.175,0,0,0,.1.033.3.3,0,0,0,.14-.033.31.31,0,0,0,.085-.067l.05-.082a.244.244,0,0,0,.018-.1v-.021a.406.406,0,0,0-.049-.146l-.213-.4-.024.012-.82.435.111.21s.271-.143.313-.165l.072.136a.163.163,0,0,1,.024.076.034.034,0,0,1,0,.013c0,.012-.029.035-.074.063s-.2.136-.2.136l.121.225a.634.634,0,0,1,.078-.081.406.406,0,0,1,.067-.039l.053-.03A.3.3,0,0,0,148.224,408.364Zm.082-.587.085.16a.173.173,0,0,1,.023.069v0c0,.026-.019.051-.061.073a.076.076,0,0,1-.088,0,.229.229,0,0,1-.047-.063l-.082-.156C148.172,407.849,148.275,407.795,148.307,407.777Zm.057-2.444-.519-.193.628-.1.084-.225-.9-.334-.008.025-.072.19.53.2c-.149.026-.643.108-.643.108l-.083.216.9.334Zm-.091.273-.945-.142,0,.026-.034.213.947.144Zm2.153,3.838-.01.015-.568.818.245.065s.092-.136.109-.165c.033.008.247.067.28.078,0,.03.009.195.009.195l.253.069-.075-1.012Zm-.1.551c.026-.038.089-.136.138-.209,0,.089.011.2.012.25C150.432,410.024,150.366,410.007,150.323,410Zm1.006-.128a.419.419,0,0,1,.171.124l.137-.149a.682.682,0,0,0-.251-.179.372.372,0,0,0-.29.024.293.293,0,0,0-.143.195.249.249,0,0,0,.055.235.418.418,0,0,0,.154.11l.09.041a.148.148,0,0,1,.064.044l.013.013a.05.05,0,0,1,.016.05.075.075,0,0,1-.076.061.291.291,0,0,1-.1-.009.673.673,0,0,1-.208-.146l-.146.158a.9.9,0,0,0,.315.193.433.433,0,0,0,.3-.024.284.284,0,0,0,.152-.2.238.238,0,0,0-.044-.217l-.006-.01a.273.273,0,0,0-.111-.09l-.144-.069-.063-.04-.01-.009a.057.057,0,0,1-.018-.055.067.067,0,0,1,.044-.05A.154.154,0,0,1,151.329,409.867Zm-3.8-2.767c.036-.005.137-.026.174-.031.008.047.083.427.083.427l.207-.04s-.074-.381-.083-.428l.133-.026c.011.047.092.467.092.467l.21-.04-.136-.7-.027,0-.91.177.142.722.212-.042Zm.552-2.685.543.206.088-.23-.543-.209a.305.305,0,0,1-.109-.061.124.124,0,0,1-.013-.137c.023-.06.055-.09.1-.093a.291.291,0,0,1,.124.026l.543.207.088-.229-.543-.208a.467.467,0,0,0-.238-.039.441.441,0,0,0-.243.636A.524.524,0,0,0,148.08,404.415Z" transform="translate(-147.251 -403.645)"/>
              <path id="Trazado_186" data-name="Trazado 186" d="M173.853,425.345l-.174.123.548.782.2-.14-.549-.782Zm-2.047,1.8c-.01-.035-.032-.134-.039-.171l.425-.1-.047-.207s-.378.089-.425.1c-.009-.031-.025-.1-.031-.133l.464-.106-.047-.207-.027.005-.669.153.214.93.717-.164-.048-.212Zm1.086-1.166-.186.079s.157.376.211.511l-.5-.389-.223.093.367.882.214-.086s-.163-.389-.218-.524l.518.4.214-.089-.369-.883Zm-2.779,1.164a.3.3,0,0,1-.031.12c-.021.04-.063.055-.127.051s-.1-.03-.117-.07a.275.275,0,0,1-.009-.125l.05-.58-.244-.021,0,.026-.049.551a.512.512,0,0,0,.027.242.442.442,0,0,0,.679.058.489.489,0,0,0,.068-.231l.05-.578-.244-.021Zm-.81-.706a.5.5,0,0,0-.14-.049l-.406-.089,0,.028-.193.906.405.087a.35.35,0,0,0,.356-.11.662.662,0,0,0,.139-.294.71.71,0,0,0,.016-.156.485.485,0,0,0-.034-.166A.329.329,0,0,0,169.3,426.44Zm-.086.44a.488.488,0,0,1-.06.154.167.167,0,0,1-.181.079l-.14-.03.111-.529.142.032c.074.015.115.045.131.09a.294.294,0,0,1,.01.081A.609.609,0,0,1,169.216,426.879Zm2.112.145a.224.224,0,0,0-.081-.063.44.44,0,0,0,.035-.034.225.225,0,0,0,.035-.125.108.108,0,0,0,0-.027.256.256,0,0,0-.058-.15h0a.3.3,0,0,0-.263-.084l-.459.039.083.952.43-.038.131-.024a.272.272,0,0,0,.108-.06.264.264,0,0,0,.063-.086.276.276,0,0,0,.031-.131.166.166,0,0,0,0-.029A.242.242,0,0,0,171.328,427.025Zm-.544-.257c.04,0,.167-.013.167-.013a.333.333,0,0,1,.1,0c.013.006.031.016.034.055,0,.006,0,.009,0,.013a.053.053,0,0,1-.019.047.166.166,0,0,1-.078.025l-.189.017C170.794,426.881,170.788,426.8,170.784,426.767Zm.316.5a.156.156,0,0,1-.077.02s-.148.013-.191.018c0-.038-.014-.15-.016-.188l.193-.017a.167.167,0,0,1,.08.005.072.072,0,0,1,.047.07.035.035,0,0,1,0,.015A.076.076,0,0,1,171.1,427.267Zm-2.511-.769a.274.274,0,0,0,.018-.1l-.018-.1a.255.255,0,0,0-.051-.082c-.005,0-.01-.011-.014-.015a.449.449,0,0,0-.133-.076l-.432-.153-.008.027-.314.875.223.078s.1-.289.121-.332l.146.052a.141.141,0,0,1,.068.039.072.072,0,0,1,.008.009.209.209,0,0,1-.013.1c-.015.052-.054.233-.054.233l.241.086a.674.674,0,0,1,0-.114.412.412,0,0,1,.023-.074l.021-.057a.3.3,0,0,0,.023-.154.162.162,0,0,0-.036-.072.2.2,0,0,0,.1-.047A.3.3,0,0,0,168.588,426.5Zm-.238-.058c-.019.051-.045.06-.064.062a.176.176,0,0,1-.078-.017l-.162-.058c.013-.036.052-.144.065-.18l.169.061a.146.146,0,0,1,.064.038.058.058,0,0,1,.016.046A.141.141,0,0,1,168.35,426.441Zm-.551-.407a.384.384,0,0,0-.019-.122.493.493,0,0,0-.543-.312.5.5,0,0,0-.32.265.513.513,0,0,0-.069.41.414.414,0,0,0,.215.255.422.422,0,0,0,.327.06h0a.513.513,0,0,0,.319-.268A.578.578,0,0,0,167.8,426.034Zm-.3.168a.348.348,0,0,1-.163.159.193.193,0,0,1-.17-.015.186.186,0,0,1-.1-.141.339.339,0,0,1,.056-.218.355.355,0,0,1,.162-.159.205.205,0,0,1,.271.156A.357.357,0,0,1,167.5,426.2Zm-.607-.655.205-.05a.515.515,0,0,0-.183-.325.4.4,0,0,0-.307-.085.616.616,0,0,0-.461.58.392.392,0,0,0,.174.3.444.444,0,0,0,.378.077l-.061-.205a.209.209,0,0,1-.187-.046.161.161,0,0,1-.068-.132.336.336,0,0,1,.085-.2.367.367,0,0,1,.174-.142.148.148,0,0,1,.15.025A.255.255,0,0,1,166.894,425.546Zm6.881.44-.009,0a.3.3,0,0,0-.144.007l-.155.046-.073.012h-.013a.051.051,0,0,1-.05-.029.064.064,0,0,1,0-.066.155.155,0,0,1,.078-.071.418.418,0,0,1,.212-.021v-.2a.683.683,0,0,0-.3.035.359.359,0,0,0-.2.212.286.286,0,0,0,.024.241.249.249,0,0,0,.2.139.469.469,0,0,0,.189-.025l.094-.03a.184.184,0,0,1,.075-.009h.02a.048.048,0,0,1,.044.028.076.076,0,0,1-.014.1.347.347,0,0,1-.082.06.688.688,0,0,1-.254.03v.213a.848.848,0,0,0,.363-.065.414.414,0,0,0,.2-.217.276.276,0,0,0-.019-.247A.245.245,0,0,0,173.775,425.986Zm.946-.8h-.012a.267.267,0,0,0-.138.033l-.145.07-.071.024h-.013a.048.048,0,0,1-.054-.018.067.067,0,0,1-.013-.064.164.164,0,0,1,.065-.085.415.415,0,0,1,.2-.056l-.033-.2a.693.693,0,0,0-.3.086.365.365,0,0,0-.159.243.284.284,0,0,0,.065.232.247.247,0,0,0,.216.1.494.494,0,0,0,.182-.055l.088-.046a.148.148,0,0,1,.073-.024h.019a.045.045,0,0,1,.047.017.079.079,0,0,1,0,.1.3.3,0,0,1-.07.073.673.673,0,0,1-.246.072l.034.211a.875.875,0,0,0,.346-.127.406.406,0,0,0,.166-.249.284.284,0,0,0-.061-.239A.252.252,0,0,0,174.72,425.182Z" transform="translate(-158.03 -415.76)"/>
              <path id="Trazado_187" data-name="Trazado 187" d="M199.31,406.814l-.09.275.542.323-.628-.053-.1.307.912.291.07-.216s-.366-.118-.5-.164l.541.05.07-.215s-.272-.161-.471-.276c.166.055.506.161.506.161l.07-.217-.91-.291Zm-.187-1.31.54-.114c-.113.1-.477.424-.477.424l.051.234.934-.2-.046-.225s-.413.086-.555.118c.114-.1.487-.435.487-.435l-.046-.226-.027.005-.909.191Zm.351-1.179-.167.063c-.016-.046-.144-.391-.144-.391l-.2.072s.128.346.144.391c-.032.01-.1.038-.134.049l-.159-.433-.2.072.311.842,1.009,0-.087-.238-.2,0c-.01-.029-.061-.17-.076-.206l.177-.065-.246-.668-.024.009-.176.064S199.458,404.279,199.475,404.325Zm-.4.44a.2.2,0,0,0-.009-.03c.041-.013.288-.106.329-.119l.052.141Zm.2,1.77.957.342v-.257l-.186-.06v-.288l.186-.061v-.263l-.036.014-.921.324Zm.561-.2v.153l-.239-.076C199.675,406.386,199.785,406.349,199.829,406.336Zm-.337,1.755-.494-.3-.014.022-.116.186.494.3a.308.308,0,0,1,.1.081.12.12,0,0,1-.013.137c-.034.056-.072.079-.116.073a.282.282,0,0,1-.115-.049l-.5-.307-.128.212.494.306a.5.5,0,0,0,.228.082.445.445,0,0,0,.358-.579A.477.477,0,0,0,199.492,408.092Zm-2.264,1.4-.026.008-.718.235.065.2.257-.085c.017.047.233.7.233.7l.229-.074s-.215-.659-.231-.707l.257-.085Zm.776-.423-.025.013-.189.11.293.5a.3.3,0,0,1,.047.115c0,.046-.021.081-.076.113a.116.116,0,0,1-.135.012.307.307,0,0,1-.082-.1l-.293-.5-.214.127.295.5a.508.508,0,0,0,.16.182.366.366,0,0,0,.375-.035.356.356,0,0,0,.214-.31.5.5,0,0,0-.078-.23Zm.93,0a.22.22,0,0,1-.069.18.164.164,0,0,1-.14.051.309.309,0,0,1-.189-.108.379.379,0,0,1-.121-.188.16.16,0,0,1,.045-.148.26.26,0,0,1,.211-.073l-.021-.21a.53.53,0,0,0-.348.14.412.412,0,0,0-.121.3.618.618,0,0,0,.521.529.388.388,0,0,0,.319-.137.449.449,0,0,0,.122-.364Z" transform="translate(-175.334 -403.74)"/>
            </g>
            <path id="Trazado_188" data-name="Trazado 188" d="M175.793,379.6a.279.279,0,0,0,.358.237.341.341,0,0,0,.108-.106l.2-.308-.118-.079-.2.305a.168.168,0,0,1-.057.064.084.084,0,0,1-.1-.013.085.085,0,0,1-.049-.085.23.23,0,0,1,.034-.076l.2-.308-.12-.078-.005.009-.2.3A.325.325,0,0,0,175.793,379.6Zm.526.449.224-.338c-.044.113-.148.389-.148.389l.112.076.3-.289-.224.338.111.073.331-.5-.159-.106s-.266.252-.315.3c.023-.067.151-.409.151-.409l-.161-.11-.006.01-.327.5Zm-.659-.436.068-.1s-.254-.167-.268-.179c.008-.013.064-.094.072-.107l.235.155.067-.1-.236-.157c.008-.013.049-.074.057-.087l.257.17.066-.1-.37-.246-.005.008-.327.492Zm-.84-.554.224-.339-.148.389.112.076.3-.29s-.226.341-.226.341l.112.072.331-.5-.159-.106s-.265.252-.317.3c.027-.065.152-.409.152-.409l-.161-.107-.005.008-.328.495Zm-3.035-2.584c-.009.015-.265.4-.265.4l.119.08.264-.4.148.1.067-.1-.41-.272-.005.009-.064.095Zm.865.785a.328.328,0,0,0-.061.257.275.275,0,0,0,.125.169.258.258,0,0,0,.2.048.317.317,0,0,0,.211-.154.36.36,0,0,0,.068-.2.284.284,0,0,0-.007-.06.265.265,0,0,0-.126-.167.268.268,0,0,0-.2-.051A.324.324,0,0,0,172.65,377.258Zm.232-.021a.126.126,0,0,1,.117.017.133.133,0,0,1,.064.1.246.246,0,0,1-.047.145.231.231,0,0,1-.116.1.143.143,0,0,1-.18-.12.223.223,0,0,1,.047-.143A.219.219,0,0,1,172.882,377.237Zm-.759.035s.182-.273.214-.324c0,.063-.028.447-.028.447l.113.074.332-.5-.11-.072s-.176.263-.21.316c0-.063.029-.438.029-.438l-.119-.078-.006.009-.327.494Zm-1.464-.969.119.077.265-.4.146.1.069-.1-.412-.272,0,.008-.062.094s.13.088.145.1C170.914,375.919,170.659,376.3,170.659,376.3Zm.695.458.068-.1-.268-.179c.008-.015.062-.1.072-.109l.234.157.068-.1-.235-.155c.009-.013.047-.075.057-.087l.257.17.068-.1-.373-.246-.006.008-.327.494Zm2.621,1.736.069-.1-.268-.177c.008-.013.064-.1.071-.11l.236.156.067-.1s-.221-.145-.236-.156c.009-.012.049-.073.059-.087.013.011.255.171.255.171l.069-.1-.373-.248-.006.008-.326.493Zm.171.114s.181-.273.215-.323c0,.061-.027.445-.027.445l.114.076.332-.5-.11-.072s-.174.264-.209.315c0-.061.027-.436.027-.436l-.118-.077-.005.008-.326.495Zm-1.01-.669.224-.339-.149.389.113.074s.215-.206.3-.289l-.226.339.111.072.332-.5-.16-.106-.315.3.151-.409-.163-.106,0,.009-.329.492Zm-5.058-3.45a.222.222,0,0,0,.124.2.225.225,0,0,0,.232.035.315.315,0,0,0,.108-.108l.2-.307-.119-.078-.2.305a.218.218,0,0,1-.056.064.089.089,0,0,1-.1-.013.085.085,0,0,1-.049-.082.2.2,0,0,1,.035-.08l.2-.307-.12-.079-.007.008-.2.3A.337.337,0,0,0,168.077,374.492Zm2.108,1.5s.11-.165.125-.19c.022.015.1.065.1.065a.105.105,0,0,1,.036.034.014.014,0,0,1,0,.009.129.129,0,0,1-.025.061c-.016.029-.068.133-.068.133l.126.085a.464.464,0,0,1,.02-.067c.01-.021.043-.077.043-.077a.183.183,0,0,0,.034-.091.131.131,0,0,0-.013-.052.182.182,0,0,0,.076-.009.2.2,0,0,0,.067-.062.175.175,0,0,0,.012-.179.131.131,0,0,0-.006-.013.327.327,0,0,0-.082-.069l-.232-.154-.333.5Zm.268-.4.1.064a.2.2,0,0,1,.04.038.061.061,0,0,1,0,.034.132.132,0,0,1-.016.034.057.057,0,0,1-.054.032.126.126,0,0,1-.054-.024s-.065-.042-.1-.064C170.391,375.679,170.439,375.611,170.454,375.589Zm-1.59-1.05c-.01.017-.265.4-.265.4l.119.077s.256-.384.265-.4c.015.012.146.1.146.1l.068-.1-.411-.272,0,.008-.064.094Zm.769,1.018a.252.252,0,0,0,.125.167.264.264,0,0,0,.2.051.324.324,0,0,0,.213-.157.364.364,0,0,0,.069-.195.294.294,0,0,0-.008-.061.258.258,0,0,0-.125-.167.255.255,0,0,0-.205-.049.316.316,0,0,0-.211.152A.323.323,0,0,0,169.632,375.557Zm.177-.179a.219.219,0,0,1,.114-.1.128.128,0,0,1,.119.018.132.132,0,0,1,.062.1.231.231,0,0,1-.048.145.223.223,0,0,1-.114.1.14.14,0,0,1-.18-.119A.216.216,0,0,1,169.809,375.377Zm-.6-.033.117-.176c.013.01.093.061.093.061a.232.232,0,0,0,.153.049.191.191,0,0,0,.13-.1.194.194,0,0,0,.035-.153.216.216,0,0,0-.094-.119l-.218-.144-.005.008-.326.494Zm.267-.4.085.056a.108.108,0,0,1,.04.049s0,.006,0,.01a.081.081,0,0,1-.018.047.08.08,0,0,1-.049.04.087.087,0,0,1-.06-.02l-.085-.055C169.4,375.056,169.469,374.956,169.477,374.941Z" transform="translate(-159.13 -374.044)"/>
          </g>
        </g>
      </g>
    </g>
  </g>
</svg>
